PathFileType	4	(X/Y/Z)	./resultDataOpenSim/trcMotMarkerGrf/sub09/qtm-04-08.trc
DataRate	CameraRate	NumFrames	NumMarkers	Units	OrigDataRate	OrigDataStartFrame	OrigNumFrames
250.000000	250.000000	8	24	m	250.000000	63	498
Frame#	Time	L.Toe.Tip			R.Toe.Tip			L.Ankle.Lat			R.Ankle.Lat			L.Ankle.Med			R.Ankle.Med			L.Heel			R.Heel			L.Knee.Lat			R.Knee.Lat			L.Knee.Med			R.Knee.Med			L.Thigh.Upper			R.Thigh.Upper			L.ASIS			R.ASIS			V.Sacral			L.Acromium			R.Acromium			C7			L.Elbow			R.Elbow			L.Wrist.Lat			R.Wrist.Lat
		X1	Y1	Z1	X2	Y2	Z2	X3	Y3	Z3	X4	Y4	Z4	X5	Y5	Z5	X6	Y6	Z6	X7	Y7	Z7	X8	Y8	Z8	X9	Y9	Z9	X10	Y10	Z10	X11	Y11	Z11	X12	Y12	Z12	X13	Y13	Z13	X14	Y14	Z14	X15	Y15	Z15	X16	Y16	Z16	X17	Y17	Z17	X18	Y18	Z18	X19	Y19	Z19	X20	Y20	Z20	X21	Y21	Z21	X22	Y22	Z22	X23	Y23	Z23	X24	Y24	Z24

63	0.248	-1.3099099	0.10480472	-0.063129669	-0.65649741	0.039330307	0.095775265	-1.3369731	0.26091615	-0.089550046	-0.80444704	0.052621652	0.11753793	-1.3163077	0.23716535	0.0039637039	-0.79139217	0.092178794	0.029856332	-1.4011788	0.30154646	-0.038597536	-0.86899804	0.03178344	0.063889078	-0.96083301	0.4309342	-0.10610452	-0.75408275	0.503254	0.19151041	-0.95545259	0.41521981	0.021884171	-0.76722142	0.49336375	0.065294547	-0.9543798	0.83717539	-0.12056442	-0.93978932	0.86753581	0.25071888	-0.86702166	0.92380069	-0.066512381	-0.86328791	0.95162992	0.17331657	-1.0331422	0.99452681	0.053509636	-0.83814364	1.3874689	-0.10755417	-0.88855689	1.390923	0.21746246	-0.93142567	1.4455702	0.047342482	-0.94450192	1.029374	-0.18557	-1.0376713	1.0552272	0.2843321	-0.73320342	0.86370969	-0.15515591	-0.91370365	0.81115189	0.30489493
64	0.252	-1.2958325	0.10667871	-0.064076617	-0.65647587	0.039283826	0.095720725	-1.3238849	0.26245014	-0.089359317	-0.80381721	0.052646271	0.11678393	-1.3016874	0.23883349	0.0034605872	-0.79124375	0.092188584	0.029853499	-1.3884638	0.30267138	-0.038330609	-0.86891826	0.031768166	0.063990731	-0.94814674	0.43224368	-0.10539175	-0.75146925	0.50307151	0.19173018	-0.94263056	0.41613689	0.022780346	-0.76448455	0.49316185	0.065535332	-0.94818706	0.83849289	-0.12010566	-0.93399132	0.86911044	0.25105323	-0.86151035	0.92532648	-0.06625551	-0.85707998	0.95302844	0.17354142	-1.0274678	0.99601185	0.053906991	-0.83264157	1.3887292	-0.10747797	-0.88223288	1.3924	0.2176722	-0.92555723	1.4469899	0.047650554	-0.93932744	1.0307328	-0.18471973	-1.0307654	1.0561273	0.28517042	-0.73011875	0.86256657	-0.15520268	-0.90404251	0.81311742	0.30445731
65	0.256	-1.2814476	0.10832184	-0.064801262	-0.65645153	0.039245763	0.095700599	-1.3106068	0.26373273	-0.089180298	-0.80379297	0.052602185	0.11691876	-1.2874344	0.24017995	0.0031493734	-0.7910825	0.092199448	0.029871649	-1.3756797	0.30348417	-0.038165686	-0.86887352	0.031822768	0.063958528	-0.93556353	0.43370016	-0.10465903	-0.7493473	0.50300721	0.19207899	-0.9298729	0.4172469	0.023625907	-0.76189427	0.49298961	0.065805354	-0.94208215	0.83987352	-0.11969291	-0.92879216	0.87057777	0.25124763	-0.85599131	0.92694063	-0.065974876	-0.85069359	0.95444006	0.17380589	-1.0217988	0.99755051	0.05430608	-0.82719559	1.3900559	-0.10740546	-0.87592852	1.3939381	0.21788277	-0.91971977	1.4484477	0.047949159	-0.93433544	1.0321849	-0.18387981	-1.0238808	1.057092	0.28602826	-0.72712028	0.86150399	-0.15523812	-0.89442136	0.81519396	0.30401268
66	0.26	-1.2668055	0.1097235	-0.065270159	-0.65643716	0.039207191	0.095710344	-1.2972072	0.26474755	-0.08901451	-0.8040662	0.052538289	0.11747341	-1.2738034	0.24115166	0.0031257989	-0.79091978	0.092220988	0.029916829	-1.3628287	0.303984	-0.038095099	-0.86892255	0.031884387	0.063906387	-0.92298109	0.43531722	-0.10389066	-0.74741823	0.50294254	0.1924843	-0.91711679	0.41855239	0.024445196	-0.75948025	0.49284648	0.066152522	-0.93611786	0.84129646	-0.11940346	-0.92465417	0.87186684	0.25120053	-0.85046707	0.92863127	-0.065669469	-0.84423162	0.95584218	0.17409977	-1.0161386	0.99914129	0.054701505	-0.82179961	1.3914469	-0.10734376	-0.86964536	1.3955349	0.21809695	-0.91390208	1.4499444	0.048237705	-0.92937959	1.033711	-0.18295912	-1.017023	1.0581185	0.28689191	-0.72420303	0.86053499	-0.15525552	-0.88483359	0.81739008	0.30356203
67	0.264	-1.2520009	0.11086543	-0.065436687	-0.65644129	0.039167869	0.095744481	-1.2837306	0.26548005	-0.088863635	-0.80438377	0.052478899	0.11801999	-1.2604347	0.24184599	0.0032710513	-0.79077342	0.092261366	0.029987829	-1.3499127	0.30415742	-0.038111731	-0.86914337	0.031889681	0.063971931	-0.91031905	0.4371128	-0.10307587	-0.74553752	0.50278783	0.19287935	-0.90437104	0.4200438	0.025295688	-0.75715706	0.49272641	0.06654584	-0.93028544	0.8427736	-0.11921424	-0.92140485	0.87300025	0.25096393	-0.84495992	0.93038577	-0.065343532	-0.8379955	0.95720381	0.17438853	-1.0104852	1.0007704	0.055096589	-0.81644971	1.3928985	-0.10729155	-0.86339502	1.3971848	0.21831713	-0.90810167	1.4514745	0.048519074	-0.92440593	1.035308	-0.18193327	-1.0101953	1.0592075	0.28776106	-0.72138877	0.85966854	-0.15526226	-0.87528255	0.81971451	0.30310504
68	0.268	-1.2370691	0.11174143	-0.065300112	-0.65646637	0.039135335	0.0957996	-1.2701409	0.26592892	-0.088733655	-0.80465514	0.052428873	0.11843648	-1.2469728	0.24235248	0.003465572	-0.79065668	0.092324736	0.030078325	-1.3369343	0.30399388	-0.038210456	-0.86954493	0.031826643	0.06419641	-0.89766572	0.43907462	-0.10222459	-0.7437766	0.50253223	0.19324582	-0.89171753	0.42171782	0.026221541	-0.75483986	0.49262522	0.066929957	-0.92445464	0.84433892	-0.11900561	-0.91796295	0.87412721	0.25080491	-0.83949211	0.93219549	-0.064998049	-0.83239915	0.95849318	0.17462765	-1.0048334	1.0024165	0.055502004	-0.81114915	1.3944025	-0.10723814	-0.85718577	1.3988783	0.21853932	-0.90232522	1.4530311	0.048799509	-0.91946266	1.0369797	-0.18087356	-1.0034022	1.0603624	0.28864409	-0.71870293	0.85890778	-0.15527209	-0.86578293	0.82216459	0.30263965
69	0.272	-1.2219109	0.1123866	-0.064953149	-0.65651069	0.039116937	0.095876562	-1.2563437	0.26609169	-0.088636661	-0.80488439	0.052383986	0.11876781	-1.2333289	0.24269683	0.0036652789	-0.79057261	0.092411392	0.030182621	-1.3238898	0.3034971	-0.038389711	-0.86998791	0.031753079	0.064470734	-0.88520493	0.44116561	-0.10134631	-0.74218152	0.50222699	0.19360824	-0.87928833	0.42356417	0.027218296	-0.75253424	0.49254088	0.067287561	-0.91839754	0.84602355	-0.11865753	-0.9132588	0.87540376	0.25097218	-0.83407545	0.93405256	-0.0646321	-0.82760727	0.95970395	0.17480898	-0.99919095	1.0040674	0.055913318	-0.80590119	1.3959482	-0.10717472	-0.85101794	1.400609	0.21876078	-0.89658772	1.454623	0.04908089	-0.91464484	1.0387187	-0.17988222	-0.9966458	1.0615813	0.28954878	-0.71614976	0.85825186	-0.15529049	-0.85633682	0.82472239	0.30216588
70	0.276	-1.2063764	0.11286134	-0.064535794	-0.65657179	0.039112035	0.09598145	-1.2423142	0.26597125	-0.088568016	-0.8050971	0.05234019	0.11907495	-1.2195338	0.24286649	0.0038681172	-0.79051357	0.092517696	0.030299075	-1.3107667	0.30267927	-0.038649474	-0.87029328	0.03174751	0.064647441	-0.87299233	0.4433659	-0.10042507	-0.74069933	0.50194635	0.19400522	-0.86715076	0.42557323	0.028243458	-0.75031187	0.49247148	0.067644122	-0.91198341	0.84782543	-0.11816222	-0.90725401	0.87685323	0.25145563	-0.82871216	0.93594813	-0.064245367	-0.82323005	0.96087429	0.17498625	-0.99359471	1.0057302	0.056283888	-0.80069598	1.3975239	-0.10710411	-0.84489065	1.4023748	0.21898725	-0.89090233	1.4562792	0.049353024	-0.91003197	1.0405035	-0.17901553	-0.98991927	1.0628525	0.29047298	-0.71372096	0.85769668	-0.15531511	-0.84691646	0.82736986	0.30169196
